<svg width="75" height="16" viewBox="0 0 75 16" fill="none" xmlns="http://www.w3.org/2000/svg">
<g clip-path="url(#clip0_2_11)">
<rect width="75" height="16" fill="#191919"/>
<g filter="url(#filter0_d_2_11)">
<path d="M15.8203 14.1406C15.0938 14.1406 14.4258 13.9766 13.8164 13.6484C13.2148 13.3203 12.7344 12.8555 12.375 12.2539C12.0156 11.6523 11.8359 10.9375 11.8359 10.1094C11.8359 9.29688 12.0234 8.55859 12.3984 7.89453C12.7812 7.23047 13.3047 6.70312 13.9688 6.3125C14.6328 5.91406 15.3828 5.71484 16.2188 5.71484C17.0391 5.71484 17.6875 5.87109 18.1641 6.18359C18.6484 6.48828 18.8906 6.84375 18.8906 7.25C18.8906 7.78125 18.6211 8.04688 18.082 8.04688C17.7148 8.04688 17.3398 7.85938 16.957 7.48438L15.8672 6.42969L16.6172 6.62891C16.1641 6.53516 15.7227 6.58984 15.293 6.79297C14.8633 6.98828 14.5078 7.32812 14.2266 7.8125C13.9531 8.28906 13.8164 8.90625 13.8164 9.66406C13.8164 10.6484 14.0625 11.4023 14.5547 11.9258C15.0547 12.4492 15.6719 12.7109 16.4062 12.7109C16.8516 12.7109 17.2461 12.6289 17.5898 12.4648C17.9414 12.293 18.2734 12.0117 18.5859 11.6211L19.1133 12.0898C18.7539 12.7852 18.293 13.3008 17.7305 13.6367C17.168 13.9727 16.5312 14.1406 15.8203 14.1406ZM19.8281 14L19.7812 13.2734L20.9414 12.9688C20.957 12.8828 20.9727 12.6836 20.9883 12.3711C21.0117 12.0508 21.0273 11.5977 21.0352 11.0117L21.0586 9.57031C21.0586 9.16406 21.0391 8.77734 21 8.41016C20.9688 8.04297 20.9297 7.72656 20.8828 7.46094L19.6875 7.19141V6.5L22.4531 5.75L22.7812 6.03125L22.7109 7.57812L22.7695 7.58984C23.1367 6.88672 23.5117 6.41016 23.8945 6.16016C24.2773 5.90234 24.6484 5.77344 25.0078 5.77344C25.3203 5.77344 25.5781 5.85156 25.7812 6.00781C25.9922 6.16406 26.0977 6.40234 26.0977 6.72266C26.0977 7.05859 25.9844 7.31641 25.7578 7.49609C25.5391 7.67578 25.2617 7.76562 24.9258 7.76562C24.4414 7.76562 23.9922 7.55859 23.5781 7.14453L23.9766 7.23828C23.5234 7.52734 23.125 8.03516 22.7812 8.76172L22.8047 10.4141C22.8203 10.9609 22.8359 11.4805 22.8516 11.9727C22.875 12.457 22.8984 12.7891 22.9219 12.9688L24.5508 13.2383L24.5156 14H19.8281ZM31.3125 14.1406C30.0625 14.1406 29.0547 13.7539 28.2891 12.9805C27.5234 12.207 27.1406 11.207 27.1406 9.98047C27.1406 9.10547 27.3359 8.35156 27.7266 7.71875C28.1172 7.07812 28.6328 6.58594 29.2734 6.24219C29.9219 5.89062 30.6289 5.71484 31.3945 5.71484C32.5898 5.71484 33.5508 6.09766 34.2773 6.86328C35.0117 7.62891 35.3789 8.62891 35.3789 9.86328C35.3789 10.668 35.1992 11.3945 34.8398 12.043C34.4805 12.6836 33.9922 13.1953 33.375 13.5781C32.7656 13.9531 32.0781 14.1406 31.3125 14.1406ZM31.5 13.1797C32.0859 13.1797 32.5508 12.918 32.8945 12.3945C33.2383 11.8633 33.4102 11.1602 33.4102 10.2852C33.4102 9.19922 33.2031 8.32422 32.7891 7.66016C32.375 6.98828 31.8281 6.65234 31.1484 6.65234C30.5391 6.65234 30.0508 6.92188 29.6836 7.46094C29.3164 7.99219 29.1328 8.70703 29.1328 9.60547C29.1328 10.6445 29.3555 11.5 29.8008 12.1719C30.2461 12.8438 30.8125 13.1797 31.5 13.1797ZM36.6328 14L36.5859 13.2734L37.7461 12.9688C37.7617 12.875 37.7773 12.6797 37.793 12.3828C37.8164 12.0859 37.832 11.6289 37.8398 11.0117L37.8633 9.57031C37.8633 9.17188 37.8438 8.78906 37.8047 8.42188C37.7734 8.04688 37.7344 7.72656 37.6875 7.46094L36.4922 7.19141V6.5L39.2695 5.75L39.668 6.06641L39.5508 7.09766L39.6094 7.12109C40 6.62109 40.4062 6.26172 40.8281 6.04297C41.2578 5.82422 41.6992 5.71484 42.1523 5.71484C42.6055 5.71484 43.0391 5.83594 43.4531 6.07812C43.875 6.32031 44.2188 6.6875 44.4844 7.17969C44.7578 7.67188 44.8945 8.29688 44.8945 9.05469L44.918 11.0352C44.918 11.4727 44.9258 11.875 44.9414 12.2422C44.9648 12.6016 44.9922 12.8438 45.0234 12.9688L46.1133 13.2734L46.0664 14H42.1289L42.0703 13.2734L43.0898 12.9688C43.1055 12.8281 43.1211 12.6016 43.1367 12.2891C43.1523 11.9766 43.1602 11.5898 43.1602 11.1289L43.1484 9.14844C43.1484 8.39844 42.9766 7.86328 42.6328 7.54297C42.2969 7.22266 41.9023 7.0625 41.4492 7.0625C40.6836 7.0625 40.0703 7.41016 39.6094 8.10547V10.9062C39.6094 11.4297 39.6172 11.8789 39.6328 12.2539C39.6484 12.6211 39.6719 12.8594 39.7031 12.9688L40.793 13.2734L40.7344 14H36.6328ZM47.3789 14L47.3203 13.2734L48.3516 12.9688C48.375 12.8281 48.3945 12.6016 48.4102 12.2891C48.4336 11.9766 48.4453 11.5898 48.4453 11.1289L48.4336 9.23047C48.4336 8.44141 48.25 7.88281 47.8828 7.55469C47.5156 7.22656 47.1172 7.0625 46.6875 7.0625C45.8672 7.0625 45.207 7.44141 44.707 8.19922L44.2969 7.48438C45.1562 6.30469 46.1562 5.71484 47.2969 5.71484C48.1328 5.71484 48.8203 6.00781 49.3594 6.59375C49.9062 7.17188 50.1797 7.96094 50.1797 8.96094V11.0352C50.1797 11.4727 50.1875 11.875 50.2031 12.2422C50.2266 12.6016 50.2578 12.8438 50.2969 12.9688L51.457 13.2734L51.3984 14H47.3789ZM55.4531 14.1406C54.9141 14.1406 54.4453 14.0352 54.0469 13.8242C53.6562 13.6055 53.3516 13.332 53.1328 13.0039C52.9219 12.6758 52.8164 12.3516 52.8164 12.0312C52.8164 11.5938 52.9531 11.2344 53.2266 10.9531C53.5 10.6719 53.9453 10.4336 54.5625 10.2383L57.457 9.30078V8.43359C57.457 7.99609 57.2578 7.61719 56.8594 7.29688C56.4688 6.96875 56.0039 6.80469 55.4648 6.80469C55.1758 6.80469 54.9805 6.86719 54.8789 6.99219C54.7773 7.10938 54.7148 7.33984 54.6914 7.68359L54.6445 8.58594C54.1367 8.70312 53.7109 8.6875 53.3672 8.53906C53.0234 8.39062 52.8516 8.14844 52.8516 7.8125C52.8516 7.53125 53.0234 7.24219 53.3672 6.94531C53.7188 6.64062 54.1406 6.375 54.6328 6.14844C55.125 5.92188 55.5859 5.77734 56.0156 5.71484C57 5.71484 57.7891 5.96484 58.3828 6.46484C58.9766 6.95703 59.2773 7.60938 59.2852 8.42188L59.2266 11.3867C59.2266 11.6602 59.2344 11.9102 59.25 12.1367C59.2734 12.3555 59.3125 12.5195 59.3672 12.6289L60.5625 12.8633V13.5195L59.5547 13.9062C59.3594 13.9766 59.1797 14.0312 59.0156 14.0703C58.8594 14.1172 58.7188 14.1406 58.5938 14.1406C58.1719 14.1406 57.8867 13.9219 57.7383 13.4844L57.5039 12.6875L57.8203 12.7227C57.0156 13.668 56.2266 14.1406 55.4531 14.1406ZM56.1094 12.8633C56.5938 12.8633 57.043 12.6367 57.457 12.1836V10.2383L55.6172 10.6953C55.0547 10.8359 54.7734 11.1562 54.7734 11.6562C54.7734 11.9688 54.9023 12.25 55.1602 12.5C55.4258 12.7422 55.7422 12.8633 56.1094 12.8633Z" fill="#FFFBFB"/>
</g>
<rect x="54" y="4" width="5" height="1" fill="#02E9C0"/>
</g>
<defs>
<filter id="filter0_d_2_11" x="7.83594" y="5.71484" width="56.7266" height="16.4258" filterUnits="userSpaceOnUse" color-interpolation-filters="sRGB">
<feFlood flood-opacity="0" result="BackgroundImageFix"/>
<feColorMatrix in="SourceAlpha" type="matrix" values="0 0 0 0 0 0 0 0 0 0 0 0 0 0 0 0 0 0 127 0" result="hardAlpha"/>
<feOffset dy="4"/>
<feGaussianBlur stdDeviation="2"/>
<feComposite in2="hardAlpha" operator="out"/>
<feColorMatrix type="matrix" values="0 0 0 0 0 0 0 0 0 0 0 0 0 0 0 0 0 0 0.25 0"/>
<feBlend mode="normal" in2="BackgroundImageFix" result="effect1_dropShadow_2_11"/>
<feBlend mode="normal" in="SourceGraphic" in2="effect1_dropShadow_2_11" result="shape"/>
</filter>
<clipPath id="clip0_2_11">
<rect width="75" height="16" fill="white"/>
</clipPath>
</defs>
</svg>
